<?xml version="1.0" encoding="UTF-8" standalone="no"?>
<!-- Created with Inkscape (http://www.inkscape.org/) -->
<svg xmlns:rdf="http://www.w3.org/1999/02/22-rdf-syntax-ns#" xmlns="http://www.w3.org/2000/svg" xmlns:cc="http://web.resource.org/cc/" xmlns:xlink="http://www.w3.org/1999/xlink" xmlns:dc="http://purl.org/dc/elements/1.1/" xmlns:svg="http://www.w3.org/2000/svg" xmlns:inkscape="http://www.inkscape.org/namespaces/inkscape" xmlns:sodipodi="http://sodipodi.sourceforge.net/DTD/sodipodi-0.dtd" xmlns:ns1="http://sozi.baierouge.fr" id="svg2222" version="1.0" viewBox="0 0 800 600" inkscape:version="0.91 r13725">
  <g id="g2288" transform="matrix(2.8171 0 0 2.8171 -713.2 -464.45)">
    <path id="path2238" style="stroke:#000000;fill:none" d="m369.68 138.69c-5.08 0.1-5.41 5.43-5.4 5.17-0.5 3.88 4.09 6.24 5.4 5.5 4.58-0.06 5.89-4.11 5.57-5.66-0.82-5.01-5.08-4.85-5.57-5.01z"/>
    <path id="path2234" style="stroke:#000000;fill:none" d="m457.07 173.63c1.61-2.89-1.33-4.85-1.19-4.76-2.05-1.57-4.9 0.21-4.91 1.19-1.46 2.59 0.41 4.68 1.41 5.01 3.13 1.22 4.43-1.22 4.69-1.44z"/>
    <path id="use2296" style="stroke:#000000;fill:none" d="m395.45 251.73c-5.08 0.1-5.41 5.43-5.4 5.17-0.5 3.88 4.09 6.24 5.4 5.5 4.58-0.06 5.89-4.11 5.57-5.66-0.82-5.01-5.08-4.85-5.57-5.01z"/>
    <path id="use2314" style="stroke:#000000;fill:none" d="m392.36 212.26h5.99s12.57 37.7-0.6 35.65l-5.39 0.68c-11.38-0.68 0-36.33 0-36.33z"/>
    <use id="use2316" xlink:href="#path2234" transform="translate(-58.453 23.336)" height="600" width="800" y="0" x="0"/>
    <use id="use2318" xlink:href="#use2316" transform="translate(-4.1411e-8 10.319)" height="600" width="800" y="0" x="0"/>
    <path id="use2320" style="stroke:#000000;fill:none" d="m392.79 169.37h5.69l4.87 9.18-4.67 9.39h-5.69s-5.27-9.59-5.27-9.59l5.07-8.98z"/>
    <use id="use2322" xlink:href="#path2238" transform="translate(13.142 7.2452)" height="600" width="800" y="0" x="0"/>
    <use id="use2324" xlink:href="#use2322" transform="translate(36.981 -7.2452)" height="600" width="800" y="0" x="0"/>
    <use id="use2326" xlink:href="#use2324" transform="translate(-11.919 7.2452)" height="600" width="800" y="0" x="0"/>
    <use id="use2328" xlink:href="#use2326" transform="translate(-12.441 -5.771)" height="600" width="800" y="0" x="0"/>
    <use id="use2330" xlink:href="#use2328" transform="translate(4.0032e-8 14.742)" height="600" width="800" y="0" x="0"/>
    <use id="use2332" xlink:href="#path2234" transform="translate(-93.486 -36.981)" height="600" width="800" y="0" x="0"/>
    <use id="use2334" xlink:href="#use2332" transform="translate(35.033 -20.639)" height="600" width="800" y="0" x="0"/>
    <use id="use2336" xlink:href="#use2334" transform="translate(-4.1411e-8 10.319)" height="600" width="800" y="0" x="0"/>
    <use id="use2338" xlink:href="#use2336" transform="translate(4.1411e-8 8.8452)" height="600" width="800" y="0" x="0"/>
    <use id="use2340" xlink:href="#use2338" transform="translate(34.094 3.4516)" height="600" width="800" y="0" x="0"/>
    <path id="use2598" style="stroke:#000000;fill:none" d="m498.68 183.18c-2.67-4.33-7.43-1.91-7.2-2.04-3.6 1.54-3.3 6.69-2 7.45 2.37 3.92 6.53 2.99 7.7 1.93 3.9-3.25 1.61-6.84 1.5-7.34z"/>
    <path id="use2600" style="stroke:#000000;fill:none" d="m414.02 262.23c-2.67-4.33-7.43-1.91-7.2-2.03-3.6 1.53-3.3 6.68-2 7.44 2.37 3.92 6.53 2.99 7.7 1.93 3.9-3.24 1.61-6.84 1.5-7.34z"/>
    <path id="use2602" style="stroke:#000000;fill:none" d="m446.75 240.02s3.03 5.16 3.03 5.16-26.12 29.95-31.03 17.56l-3.32-4.31c-5.18-10.15 31.32-18.41 31.32-18.41z"/>
    <path id="use2604" style="stroke:#000000;fill:none" d="m463.27 237.96c3.31-0.08 3.51-3.61 3.5-3.44 0.32-2.57-2.66-4.12-3.51-3.63-2.97 0.05-3.83 2.72-3.6 3.75 0.53 3.32 3.29 3.2 3.61 3.32z"/>
    <path id="use2606" style="stroke:#000000;fill:none" d="m454.38 243.19c3.31-0.08 3.51-3.61 3.5-3.44 0.31-2.56-2.67-4.12-3.52-3.63-2.97 0.05-3.82 2.72-3.6 3.75 0.53 3.32 3.3 3.2 3.62 3.32z"/>
    <path id="use2608" style="stroke:#000000;fill:none" d="m483.98 218.71s2.88 4.91 2.88 4.91-5.45 8.85-5.45 8.85l-10.46 0.73-2.88-4.9s5.59-9.41 5.59-9.41l10.32-0.18z"/>
    <path id="use2610" style="stroke:#000000;fill:none" d="m499.09 198.18c-2.66-4.33-7.42-1.91-7.19-2.03-3.6 1.53-3.31 6.68-2.01 7.44 2.38 3.92 6.53 2.99 7.7 1.93 3.91-3.24 1.61-6.84 1.5-7.34z"/>
    <path id="use2612" style="stroke:#000000;fill:none" d="m524.08 226.39c-2.66-4.33-7.42-1.91-7.19-2.04-3.6 1.54-3.31 6.69-2.01 7.45 2.38 3.91 6.53 2.99 7.7 1.93 3.91-3.25 1.61-6.84 1.5-7.34z"/>
    <path id="use2614" style="stroke:#000000;fill:none" d="m511.79 219.78c-2.66-4.32-7.42-1.91-7.19-2.03-3.6 1.54-3.31 6.69-2 7.44 2.37 3.92 6.52 3 7.7 1.94 3.9-3.25 1.6-6.84 1.49-7.35z"/>
    <path id="use2616" style="stroke:#000000;fill:none" d="m510.85 206.8c-2.66-4.33-7.42-1.91-7.19-2.03-3.6 1.53-3.31 6.69-2 7.44 2.37 3.92 6.52 2.99 7.7 1.93 3.9-3.24 1.6-6.84 1.49-7.34z"/>
    <path id="use2618" style="stroke:#000000;fill:none" d="m498.15 214.27c-2.67-4.33-7.43-1.91-7.2-2.03-3.6 1.53-3.3 6.69-2 7.44 2.37 3.92 6.53 3 7.7 1.93 3.9-3.24 1.61-6.83 1.5-7.34z"/>
    <path id="use2620" style="stroke:#000000;fill:none" d="m497.34 176.89c3.3-0.08 3.5-3.61 3.5-3.44 0.31-2.57-2.67-4.12-3.52-3.63-2.97 0.05-3.82 2.72-3.6 3.75 0.53 3.32 3.29 3.2 3.62 3.32z"/>
    <path id="use2622" style="stroke:#000000;fill:none" d="m533 196.82c3.3-0.08 3.5-3.61 3.5-3.44 0.31-2.57-2.67-4.12-3.52-3.63-2.97 0.05-3.82 2.72-3.6 3.75 0.53 3.32 3.29 3.2 3.62 3.32z"/>
    <path id="use2624" style="stroke:#000000;fill:none" d="m524.16 202.15c3.31-0.07 3.51-3.6 3.5-3.43 0.32-2.57-2.66-4.12-3.51-3.63-2.97 0.05-3.83 2.72-3.6 3.75 0.53 3.32 3.29 3.2 3.61 3.31z"/>
    <path id="use2626" style="stroke:#000000;fill:none" d="m516.48 206.53c3.3-0.08 3.5-3.61 3.5-3.44 0.31-2.56-2.67-4.12-3.52-3.63-2.97 0.06-3.82 2.73-3.6 3.76 0.53 3.31 3.29 3.2 3.62 3.31z"/>
    <path id="use2628" style="stroke:#000000;fill:none" d="m530.67 237.48c3.31-0.08 3.5-3.61 3.5-3.44 0.31-2.56-2.67-4.12-3.52-3.63-2.97 0.05-3.82 2.72-3.6 3.75 0.53 3.32 3.3 3.2 3.62 3.32z"/>
    <path id="use2630" style="stroke:#000000;fill:none" d="m524.44 316.38c2.41-4.47-2.06-7.39-1.84-7.25-3.13-2.35-7.44 0.48-7.45 1.99-2.2 4.01 0.67 7.15 2.18 7.63 4.76 1.76 6.72-2.02 7.11-2.37z"/>
    <path id="use2632" style="stroke:#000000;fill:none" d="m413.65 282.59c2.41-4.47-2.06-7.39-1.84-7.25-3.13-2.35-7.44 0.48-7.45 1.99-2.2 4.01 0.67 7.15 2.18 7.63 4.76 1.76 6.72-2.03 7.11-2.37z"/>
    <path id="use2634" style="stroke:#000000;fill:none" d="m449.25 299.83s-2.96 5.21-2.96 5.21-38.99-7.66-30.72-18.1c0 0 2.07-5.03 2.07-5.03 6.2-9.56 31.61 17.92 31.61 17.92z"/>
    <path id="use2636" style="stroke:#000000;fill:none" d="m459.3 313.11c1.72 2.82 4.87 1.23 4.72 1.31 2.38-1.01 2.24-4.37 1.39-4.86-1.53-2.55-4.27-1.95-5.05-1.24-2.61 2.12-1.13 4.45-1.06 4.79z"/>
    <path id="use2638" style="stroke:#000000;fill:none" d="m450.32 308.02c1.72 2.83 4.87 1.23 4.73 1.31 2.37-1.01 2.23-4.37 1.38-4.86-1.53-2.54-4.27-1.95-5.05-1.24-2.61 2.12-1.12 4.45-1.06 4.79z"/>
    <path id="use2640" style="stroke:#000000;fill:none" d="m486.31 321.41s-2.8 4.95-2.8 4.95l-10.39-0.29s-5.87-8.69-5.87-8.69 2.81-4.95 2.81-4.95l10.94 0.15 5.31 8.83z"/>
    <path id="use2642" style="stroke:#000000;fill:none" d="m511.65 324.24c2.42-4.47-2.05-7.39-1.83-7.25-3.13-2.35-7.45 0.48-7.45 1.99-2.21 4.01 0.67 7.15 2.18 7.63 4.76 1.76 6.72-2.02 7.1-2.37z"/>
    <path id="use2644" style="stroke:#000000;fill:none" d="m499.72 359.98c2.42-4.47-2.06-7.38-1.84-7.24-3.12-2.35-7.44 0.48-7.44 1.98-2.21 4.02 0.67 7.15 2.17 7.64 4.77 1.76 6.73-2.03 7.11-2.38z"/>
    <path id="use2646" style="stroke:#000000;fill:none" d="m499.29 346.04c2.42-4.47-2.05-7.38-1.83-7.25-3.13-2.34-7.45 0.48-7.45 1.99-2.21 4.01 0.67 7.15 2.18 7.64 4.76 1.75 6.72-2.03 7.1-2.38z"/>
    <path id="use2648" style="stroke:#000000;fill:none" d="m510.07 338.74c2.42-4.47-2.06-7.39-1.84-7.25-3.13-2.35-7.44 0.48-7.44 1.98-2.21 4.02 0.67 7.16 2.17 7.64 4.77 1.76 6.73-2.03 7.11-2.37z"/>
    <path id="use2650" style="stroke:#000000;fill:none" d="m497.24 331.47c2.42-4.47-2.05-7.39-1.83-7.25-3.13-2.35-7.45 0.48-7.45 1.98-2.21 4.02 0.67 7.16 2.18 7.64 4.76 1.76 6.72-2.03 7.1-2.37z"/>
    <path id="use2652" style="stroke:#000000;fill:none" d="m529.22 312.07c1.72 2.83 4.87 1.24 4.72 1.31 2.38-1.01 2.24-4.36 1.39-4.86-1.53-2.54-4.27-1.95-5.05-1.24-2.61 2.12-1.13 4.46-1.06 4.79z"/>
    <path id="use2654" style="stroke:#000000;fill:none" d="m529.79 352.92c1.72 2.82 4.87 1.23 4.73 1.31 2.37-1.01 2.23-4.37 1.38-4.86-1.53-2.54-4.27-1.95-5.05-1.24-2.61 2.12-1.13 4.45-1.06 4.79z"/>
    <path id="use2656" style="stroke:#000000;fill:none" d="m520.75 347.94c1.72 2.83 4.87 1.23 4.73 1.31 2.37-1.01 2.23-4.36 1.38-4.86-1.53-2.54-4.27-1.95-5.05-1.24-2.61 2.12-1.13 4.46-1.06 4.79z"/>
    <path id="use2658" style="stroke:#000000;fill:none" d="m513.11 343.47c1.72 2.82 4.88 1.23 4.73 1.31 2.38-1.01 2.24-4.37 1.39-4.86-1.53-2.55-4.28-1.95-5.06-1.24-2.6 2.12-1.12 4.45-1.06 4.79z"/>
    <path id="use2660" style="stroke:#000000;fill:none" d="m493.41 371.23c1.72 2.83 4.87 1.24 4.73 1.32 2.37-1.01 2.23-4.37 1.38-4.86-1.53-2.55-4.27-1.95-5.05-1.25-2.61 2.12-1.12 4.46-1.06 4.79z"/>
    <path id="use2662" style="stroke:#000000;fill:none" d="m420.7 403.69c5.08-0.14 5.37-5.48 5.36-5.22 0.47-3.88-4.14-6.2-5.44-5.45-4.58 0.09-5.86 4.15-5.53 5.7 0.86 5 5.12 4.81 5.61 4.97z"/>
    <path id="use2664" style="stroke:#000000;fill:none" d="m394.19 290.84c5.08-0.14 5.37-5.47 5.36-5.21 0.47-3.88-4.14-6.21-5.45-5.46-4.57 0.1-5.85 4.16-5.52 5.71 0.86 5 5.12 4.81 5.61 4.96z"/>
    <path id="use2666" style="stroke:#000000;fill:none" d="m397.44 330.3l-5.99 0.04s-12.87-37.6 0.32-35.65c0 0 5.38-0.72 5.38-0.72 11.39 0.59 0.29 36.33 0.29 36.33z"/>
    <path id="use2668" style="stroke:#000000;fill:none" d="m390.97 345.64c-1.59 2.9 1.36 4.84 1.22 4.75 2.07 1.55 4.9-0.25 4.9-1.23 1.44-2.6-0.44-4.68-1.45-5-3.14-1.19-4.42 1.26-4.67 1.48z"/>
    <path id="use2670" style="stroke:#000000;fill:none" d="m390.97 335.32c-1.59 2.9 1.36 4.84 1.22 4.75 2.07 1.55 4.9-0.25 4.9-1.23 1.44-2.6-0.44-4.67-1.45-5-3.14-1.19-4.42 1.26-4.67 1.48z"/>
    <path id="use2672" style="stroke:#000000;fill:none" d="m396.87 373.19l-5.69 0.05s-4.94-9.15-4.94-9.15 4.6-9.42 4.6-9.42l5.69-0.05s5.34 9.55 5.34 9.55l-5 9.02z"/>
    <path id="use2674" style="stroke:#000000;fill:none" d="m407.5 396.55c5.08-0.14 5.37-5.48 5.36-5.22 0.47-3.88-4.14-6.2-5.44-5.45-4.58 0.09-5.86 4.15-5.53 5.7 0.86 5 5.12 4.81 5.61 4.97z"/>
    <path id="use2676" style="stroke:#000000;fill:none" d="m370.58 404.08c5.08-0.14 5.37-5.47 5.36-5.21 0.47-3.88-4.14-6.21-5.44-5.46-4.58 0.1-5.86 4.16-5.53 5.71 0.86 5 5.12 4.81 5.61 4.96z"/>
    <path id="use2678" style="stroke:#000000;fill:none" d="m382.44 396.74c5.08-0.14 5.37-5.47 5.36-5.21 0.47-3.88-4.14-6.21-5.44-5.46-4.58 0.1-5.86 4.16-5.53 5.71 0.86 5 5.12 4.81 5.61 4.96z"/>
    <path id="use2680" style="stroke:#000000;fill:none" d="m394.19 402.42c5.08-0.14 5.37-5.47 5.36-5.21 0.47-3.88-4.14-6.21-5.45-5.46-4.57 0.1-5.85 4.16-5.52 5.71 0.86 5 5.12 4.81 5.61 4.96z"/>
    <path id="use2682" style="stroke:#000000;fill:none" d="m394.19 387.68c5.08-0.14 5.37-5.47 5.36-5.21 0.47-3.89-4.14-6.21-5.45-5.46-4.57 0.1-5.85 4.16-5.52 5.71 0.86 5 5.12 4.8 5.61 4.96z"/>
    <path id="use2684" style="stroke:#000000;fill:none" d="m426.82 405.67c-1.59 2.91 1.37 4.84 1.23 4.75 2.06 1.56 4.9-0.24 4.9-1.22 1.44-2.61-0.45-4.68-1.45-5-3.14-1.2-4.42 1.25-4.68 1.47z"/>
    <path id="use2686" style="stroke:#000000;fill:none" d="m390.97 426.59c-1.59 2.9 1.36 4.84 1.22 4.75 2.07 1.56 4.9-0.25 4.9-1.23 1.44-2.6-0.44-4.67-1.45-5-3.14-1.19-4.42 1.26-4.67 1.48z"/>
    <path id="use2688" style="stroke:#000000;fill:none" d="m390.97 416.27c-1.59 2.91 1.36 4.84 1.22 4.75 2.07 1.56 4.9-0.25 4.9-1.23 1.44-2.6-0.44-4.67-1.45-4.99-3.14-1.2-4.42 1.25-4.67 1.47z"/>
    <path id="use2690" style="stroke:#000000;fill:none" d="m390.97 407.43c-1.59 2.9 1.36 4.84 1.22 4.75 2.07 1.55 4.9-0.25 4.9-1.23 1.44-2.6-0.44-4.68-1.45-5-3.14-1.19-4.42 1.26-4.67 1.48z"/>
    <path id="use2692" style="stroke:#000000;fill:none" d="m357.68 404.24c-1.59 2.91 1.37 4.84 1.23 4.75 2.06 1.56 4.9-0.24 4.9-1.22 1.44-2.61-0.45-4.68-1.45-5-3.14-1.2-4.42 1.25-4.68 1.47z"/>
    <path id="use2694" style="stroke:#000000;fill:none" d="m265.7 227.8c-2.42 4.47 2.05 7.38 1.83 7.25 3.13 2.34 7.45-0.49 7.45-1.99 2.21-4.01-0.67-7.15-2.18-7.64-4.76-1.75-6.72 2.03-7.1 2.38z"/>
    <path id="use2696" style="stroke:#000000;fill:none" d="m376.49 261.59c-2.42 4.47 2.05 7.38 1.83 7.25 3.13 2.34 7.45-0.48 7.45-1.99 2.21-4.01-0.67-7.15-2.18-7.64-4.76-1.75-6.72 2.03-7.1 2.38z"/>
    <path id="use2698" style="stroke:#000000;fill:none" d="m340.89 244.35l2.95-5.21s39 7.65 30.72 18.1l-2.07 5.02c-6.2 9.57-31.6-17.91-31.6-17.91z"/>
    <path id="use2700" style="stroke:#000000;fill:none" d="m330.84 231.07c-1.72-2.83-4.88-1.24-4.73-1.31-2.38 1.01-2.24 4.36-1.39 4.85 1.53 2.55 4.28 1.96 5.06 1.25 2.6-2.12 1.12-4.46 1.06-4.79z"/>
    <path id="use2702" style="stroke:#000000;fill:none" d="m339.81 236.16c-1.72-2.83-4.87-1.24-4.72-1.32-2.38 1.01-2.24 4.37-1.39 4.86 1.53 2.55 4.27 1.95 5.05 1.25 2.61-2.12 1.13-4.46 1.06-4.79z"/>
    <path id="use2704" style="stroke:#000000;fill:none" d="m303.82 222.76s2.8-4.95 2.8-4.95l10.39 0.29s5.87 8.69 5.87 8.69-2.81 4.95-2.81 4.95l-10.94-0.14s-5.31-8.84-5.31-8.84z"/>
    <path id="use2706" style="stroke:#000000;fill:none" d="m278.48 219.94c-2.42 4.47 2.06 7.38 1.84 7.24 3.12 2.35 7.44-0.48 7.44-1.98 2.21-4.01-0.67-7.15-2.17-7.64-4.77-1.75-6.73 2.03-7.11 2.38z"/>
    <path id="use2708" style="stroke:#000000;fill:none" d="m290.41 184.19c-2.41 4.47 2.06 7.39 1.84 7.25 3.13 2.35 7.44-0.48 7.45-1.99 2.2-4.01-0.68-7.15-2.18-7.63-4.76-1.76-6.73 2.03-7.11 2.37z"/>
    <path id="use2710" style="stroke:#000000;fill:none" d="m290.84 198.14c-2.42 4.46 2.05 7.38 1.83 7.24 3.13 2.35 7.45-0.48 7.45-1.98 2.21-4.02-0.67-7.15-2.18-7.64-4.76-1.76-6.72 2.03-7.1 2.38z"/>
    <path id="use2712" style="stroke:#000000;fill:none" d="m280.06 205.44c-2.41 4.47 2.06 7.38 1.84 7.25 3.13 2.35 7.44-0.48 7.45-1.99 2.2-4.01-0.67-7.15-2.18-7.64-4.76-1.75-6.72 2.03-7.11 2.38z"/>
    <path id="use2714" style="stroke:#000000;fill:none" d="m292.89 212.71c-2.42 4.47 2.06 7.38 1.83 7.25 3.13 2.34 7.45-0.48 7.45-1.99 2.21-4.01-0.67-7.15-2.18-7.64-4.76-1.75-6.72 2.03-7.1 2.38z"/>
    <path id="use2716" style="stroke:#000000;fill:none" d="m260.92 232.1c-1.72-2.82-4.88-1.23-4.73-1.31-2.38 1.01-2.24 4.37-1.39 4.86 1.53 2.55 4.28 1.95 5.06 1.25 2.6-2.13 1.12-4.46 1.06-4.8z"/>
    <path id="use2718" style="stroke:#000000;fill:none" d="m260.35 191.26c-1.72-2.83-4.88-1.24-4.73-1.32-2.38 1.01-2.24 4.37-1.39 4.86 1.53 2.55 4.28 1.95 5.06 1.25 2.6-2.12 1.12-4.46 1.06-4.79z"/>
    <path id="use2720" style="stroke:#000000;fill:none" d="m269.38 196.24c-1.72-2.83-4.87-1.24-4.72-1.32-2.38 1.01-2.24 4.37-1.39 4.86 1.53 2.55 4.27 1.95 5.05 1.25 2.61-2.12 1.13-4.46 1.06-4.79z"/>
    <path id="use2722" style="stroke:#000000;fill:none" d="m277.02 200.71c-1.72-2.83-4.88-1.24-4.73-1.31-2.38 1-2.23 4.36-1.39 4.85 1.54 2.55 4.28 1.95 5.06 1.25 2.6-2.12 1.12-4.46 1.06-4.79z"/>
    <path id="use2724" style="stroke:#000000;fill:none" d="m296.72 172.94c-1.72-2.82-4.87-1.23-4.72-1.31-2.38 1.01-2.24 4.37-1.39 4.86 1.53 2.55 4.27 1.95 5.05 1.24 2.61-2.12 1.13-4.45 1.06-4.79z"/>
    <path id="use2726" style="stroke:#000000;fill:none" d="m291.81 360.42c2.67 4.33 7.43 1.92 7.2 2.04 3.6-1.54 3.3-6.69 2-7.44-2.37-3.92-6.53-3-7.7-1.94-3.9 3.25-1.61 6.84-1.5 7.34z"/>
    <path id="use2728" style="stroke:#000000;fill:none" d="m376.47 281.37c2.66 4.33 7.43 1.91 7.2 2.04 3.6-1.54 3.3-6.69 2-7.44-2.37-3.92-6.53-3-7.7-1.94-3.9 3.25-1.61 6.84-1.5 7.34z"/>
    <path id="use2730" style="stroke:#000000;fill:none" d="m343.74 303.58s-3.03-5.16-3.03-5.16 26.12-29.94 31.03-17.55c0 0 3.32 4.3 3.32 4.3 5.18 10.16-31.32 18.41-31.32 18.41z"/>
    <path id="use2732" style="stroke:#000000;fill:none" d="m327.22 305.65c-3.31 0.08-3.51 3.6-3.5 3.44-0.32 2.56 2.66 4.11 3.51 3.63 2.97-0.06 3.83-2.73 3.6-3.76-0.53-3.32-3.29-3.2-3.61-3.31z"/>
    <path id="use2734" style="stroke:#000000;fill:none" d="m336.11 300.42c-3.31 0.07-3.51 3.6-3.5 3.44-0.31 2.56 2.67 4.11 3.52 3.63 2.97-0.06 3.82-2.73 3.6-3.76-0.54-3.32-3.3-3.2-3.62-3.31z"/>
    <path id="use2736" style="stroke:#000000;fill:none" d="m306.51 324.89l-2.88-4.9s5.44-8.85 5.44-8.85l10.47-0.74s2.88 4.91 2.88 4.91-5.6 9.4-5.6 9.4l-10.31 0.18z"/>
    <path id="use2738" style="stroke:#000000;fill:none" d="m291.4 345.42c2.66 4.33 7.42 1.92 7.19 2.04 3.6-1.54 3.31-6.69 2.01-7.44-2.38-3.92-6.53-3-7.71-1.94-3.9 3.25-1.6 6.84-1.49 7.34z"/>
    <path id="use2740" style="stroke:#000000;fill:none" d="m266.41 317.22c2.66 4.33 7.42 1.91 7.19 2.03 3.6-1.53 3.31-6.69 2.01-7.44-2.38-3.92-6.53-3-7.71-1.93-3.9 3.24-1.6 6.83-1.49 7.34z"/>
    <path id="use2742" style="stroke:#000000;fill:none" d="m278.7 323.82c2.66 4.33 7.42 1.91 7.19 2.03 3.6-1.53 3.31-6.68 2-7.44-2.37-3.92-6.52-2.99-7.7-1.93-3.9 3.25-1.6 6.84-1.49 7.34z"/>
    <path id="use2744" style="stroke:#000000;fill:none" d="m279.64 336.8c2.66 4.33 7.42 1.91 7.19 2.04 3.6-1.54 3.31-6.69 2-7.45-2.37-3.91-6.53-2.99-7.7-1.93-3.9 3.25-1.61 6.84-1.49 7.34z"/>
    <path id="use2746" style="stroke:#000000;fill:none" d="m292.34 329.33c2.66 4.33 7.43 1.91 7.2 2.04 3.6-1.54 3.3-6.69 2-7.45-2.37-3.91-6.53-2.99-7.7-1.93-3.9 3.25-1.61 6.84-1.5 7.34z"/>
    <path id="use2748" style="stroke:#000000;fill:none" d="m293.15 366.72c-3.3 0.08-3.5 3.6-3.5 3.44-0.31 2.56 2.67 4.12 3.52 3.63 2.97-0.06 3.82-2.73 3.6-3.76-0.53-3.31-3.3-3.2-3.62-3.31z"/>
    <path id="use2750" style="stroke:#000000;fill:none" d="m257.49 346.79c-3.3 0.08-3.5 3.6-3.5 3.44-0.31 2.56 2.67 4.11 3.52 3.63 2.97-0.06 3.82-2.73 3.6-3.76-0.53-3.31-3.3-3.2-3.62-3.31z"/>
    <path id="use2752" style="stroke:#000000;fill:none" d="m266.32 341.45c-3.3 0.08-3.5 3.6-3.5 3.44-0.31 2.56 2.67 4.12 3.52 3.63 2.97-0.06 3.83-2.73 3.6-3.76-0.53-3.31-3.29-3.2-3.62-3.31z"/>
    <path id="use2754" style="stroke:#000000;fill:none" d="m274.01 337.08c-3.3 0.07-3.5 3.6-3.5 3.43-0.31 2.57 2.67 4.12 3.52 3.63 2.97-0.05 3.82-2.72 3.6-3.75-0.53-3.32-3.3-3.2-3.62-3.31z"/>
    <path id="use2756" style="stroke:#000000;fill:none" d="m259.82 306.13c-3.31 0.07-3.51 3.6-3.5 3.44-0.31 2.56 2.67 4.11 3.52 3.63 2.97-0.06 3.82-2.73 3.6-3.76-0.54-3.32-3.3-3.2-3.62-3.31z"/>
    <path id="use2918" style="stroke:#000000;fill:none" d="m430.56 190.58c-1.73-3.09-21.13-3.79-29.39 8.07 0 0-0.35 1.42 0.81 3.73 4.46 4.09 29.42-2.2 29.6-8.42-0.22-2.36-0.46-1.91-1.02-3.38z"/>
    <path id="use2920" style="stroke:#000000;fill:none" d="m456.55 231.41c3.18-1.56 4.94-20.89-6.47-29.79 0 0-1.39-0.43-3.76 0.61-4.33 4.23 0.61 29.5 6.81 30.01 2.37-0.09 1.93-0.35 3.42-0.83z"/>
    <use id="use2922" xlink:href="#path2234" transform="translate(-5.8295 22.49)" height="600" width="800" y="0" x="0"/>
    <use id="use2924" xlink:href="#use2922" transform="translate(-12.045 -6.1484)" height="600" width="800" y="0" x="0"/>
    <path id="use2926" style="stroke:#000000;fill:none" d="m447.13 176.55c-5.08 0.1-5.41 5.43-5.4 5.17-0.5 3.88 4.09 6.24 5.4 5.5 4.58-0.06 5.89-4.11 5.57-5.66-0.82-5.01-5.08-4.85-5.57-5.01z"/>
    <use id="use2928" xlink:href="#path2234" transform="matrix(.5 -.86603 .86603 .5 -38.01 479.17)" height="600" width="800" y="0" x="0"/>
    <use id="use2930" xlink:href="#use2918" transform="matrix(.5 -.86603 .86603 .5 -38.01 479.17)" height="600" width="800" y="0" x="0"/>
    <use id="use2932" xlink:href="#use2920" transform="matrix(.5 -.86603 .86603 .5 -38.01 479.17)" height="600" width="800" y="0" x="0"/>
    <use id="use2934" xlink:href="#use2922" transform="matrix(.5 -.86603 .86603 .5 -38.01 479.17)" height="600" width="800" y="0" x="0"/>
    <use id="use2936" xlink:href="#use2924" transform="matrix(.5 -.86603 .86603 .5 -38.01 479.17)" height="600" width="800" y="0" x="0"/>
    <use id="use2938" xlink:href="#use2926" transform="matrix(.5 -.86603 .86603 .5 -37.273 479.17)" height="600" width="800" y="0" x="0"/>
    <use id="use2952" xlink:href="#use2928" transform="matrix(.5 -.86603 .86603 .5 -39.832 477.9)" height="600" width="800" y="0" x="0"/>
    <use id="use2954" xlink:href="#use2930" transform="matrix(.5 -.86603 .86603 .5 -39.832 477.9)" height="600" width="800" y="0" x="0"/>
    <use id="use2956" xlink:href="#use2932" transform="matrix(.5 -.86603 .86603 .5 -39.832 477.9)" height="600" width="800" y="0" x="0"/>
    <use id="use2958" xlink:href="#use2934" transform="matrix(.5 -.86603 .86603 .5 -39.832 477.9)" height="600" width="800" y="0" x="0"/>
    <use id="use2960" xlink:href="#use2936" transform="matrix(.5 -.86603 .86603 .5 -39.832 477.9)" height="600" width="800" y="0" x="0"/>
    <use id="use2962" xlink:href="#use2938" transform="matrix(.5 -.86603 .86603 .5 -39.832 477.9)" height="600" width="800" y="0" x="0"/>
    <use id="use2964" xlink:href="#use2952" transform="matrix(.5 -.86603 .86603 .5 -37.941 476.3)" height="600" width="800" y="0" x="0"/>
    <use id="use2966" xlink:href="#use2954" transform="matrix(.5 -.86603 .86603 .5 -37.941 476.3)" height="600" width="800" y="0" x="0"/>
    <use id="use2968" xlink:href="#use2956" transform="matrix(.5 -.86603 .86603 .5 -37.941 476.3)" height="600" width="800" y="0" x="0"/>
    <use id="use2970" xlink:href="#use2958" transform="matrix(.5 -.86603 .86603 .5 -37.941 476.3)" height="600" width="800" y="0" x="0"/>
    <use id="use2972" xlink:href="#use2960" transform="matrix(.5 -.86603 .86603 .5 -37.941 476.3)" height="600" width="800" y="0" x="0"/>
    <use id="use2974" xlink:href="#use2962" transform="matrix(.5 -.86603 .86603 .5 -37.941 476.3)" height="600" width="800" y="0" x="0"/>
    <use id="use2976" xlink:href="#use2964" transform="matrix(.5 -.86603 .86603 .5 -36.207 477.63)" height="600" width="800" y="0" x="0"/>
    <use id="use2978" xlink:href="#use2966" transform="matrix(.5 -.86603 .86603 .5 -36.207 477.63)" height="600" width="800" y="0" x="0"/>
    <use id="use2980" xlink:href="#use2968" transform="matrix(.5 -.86603 .86603 .5 -36.207 477.63)" height="600" width="800" y="0" x="0"/>
    <use id="use2982" xlink:href="#use2970" transform="matrix(.5 -.86603 .86603 .5 -36.207 477.63)" height="600" width="800" y="0" x="0"/>
    <use id="use2984" xlink:href="#use2972" transform="matrix(.5 -.86603 .86603 .5 -36.207 477.63)" height="600" width="800" y="0" x="0"/>
    <use id="use2986" xlink:href="#use2974" transform="matrix(.5 -.86603 .86603 .5 -36.207 477.63)" height="600" width="800" y="0" x="0"/>
    <use id="use2988" xlink:href="#use2976" transform="matrix(.5 -.86603 .86603 .5 -36.632 479.68)" height="600" width="800" y="0" x="0"/>
    <use id="use2990" xlink:href="#use2978" transform="matrix(.5 -.86603 .86603 .5 -36.632 479.68)" height="600" width="800" y="0" x="0"/>
    <use id="use2992" xlink:href="#use2980" transform="matrix(.5 -.86603 .86603 .5 -36.632 479.68)" height="600" width="800" y="0" x="0"/>
    <use id="use2994" xlink:href="#use2982" transform="matrix(.5 -.86603 .86603 .5 -36.632 479.68)" height="600" width="800" y="0" x="0"/>
    <use id="use2996" xlink:href="#use2984" transform="matrix(.5 -.86603 .86603 .5 -36.632 479.68)" height="600" width="800" y="0" x="0"/>
    <use id="use2998" xlink:href="#use2986" transform="matrix(.5 -.86603 .86603 .5 -36.632 479.68)" height="600" width="800" y="0" x="0"/>
  </g>
  <metadata>
    <rdf:RDF>
      <cc:Work>
        <dc:format>image/svg+xml</dc:format>
        <dc:type rdf:resource="http://purl.org/dc/dcmitype/StillImage"/>
        <cc:license rdf:resource="http://creativecommons.org/licenses/publicdomain/"/>
        <dc:publisher>
          <cc:Agent rdf:about="http://openclipart.org/">
            <dc:title>Openclipart</dc:title>
          </cc:Agent>
        </dc:publisher>
        <dc:title>snow star</dc:title>
        <dc:date>2008-01-02T09:31:57</dc:date>
        <dc:description/>
        <dc:source>https://openclipart.org/detail/10420/snow-star-by-ireneb</dc:source>
        <dc:creator>
          <cc:Agent>
            <dc:title>ireneb</dc:title>
          </cc:Agent>
        </dc:creator>
        <dc:subject>
          <rdf:Bag>
            <rdf:li>black &amp; white</rdf:li>
            <rdf:li>line art</rdf:li>
            <rdf:li>season</rdf:li>
            <rdf:li>snow</rdf:li>
            <rdf:li>snowflake</rdf:li>
            <rdf:li>star</rdf:li>
            <rdf:li>weather</rdf:li>
            <rdf:li>winter</rdf:li>
          </rdf:Bag>
        </dc:subject>
      </cc:Work>
      <cc:License rdf:about="http://creativecommons.org/licenses/publicdomain/">
        <cc:permits rdf:resource="http://creativecommons.org/ns#Reproduction"/>
        <cc:permits rdf:resource="http://creativecommons.org/ns#Distribution"/>
        <cc:permits rdf:resource="http://creativecommons.org/ns#DerivativeWorks"/>
      </cc:License>
    </rdf:RDF>
  </metadata>
</svg>
